<?xml version="1.0" encoding="UTF-8" standalone="no"?>
<!-- Created with Inkscape (http://www.inkscape.org/) -->

<svg
   version="1.1"
   id="svg18"
   width="489.92001"
   height="199.67999"
   viewBox="0 0 489.92001 199.67999"
   sodipodi:docname="PyMC.svg"
   inkscape:version="1.2 (56b05e47e7, 2022-06-09, custom)"
   xmlns:inkscape="http://www.inkscape.org/namespaces/inkscape"
   xmlns:sodipodi="http://sodipodi.sourceforge.net/DTD/sodipodi-0.dtd"
   xmlns="http://www.w3.org/2000/svg"
   xmlns:svg="http://www.w3.org/2000/svg">
  <defs
     id="defs22" />
  <sodipodi:namedview
     id="namedview20"
     pagecolor="#ffffff"
     bordercolor="#000000"
     borderopacity="0.25"
     inkscape:showpageshadow="2"
     inkscape:pageopacity="0.0"
     inkscape:pagecheckerboard="0"
     inkscape:deskcolor="#d1d1d1"
     showgrid="false"
     inkscape:zoom="1.5346957"
     inkscape:cx="216.32954"
     inkscape:cy="123.47725"
     inkscape:window-width="1846"
     inkscape:window-height="1009"
     inkscape:window-x="0"
     inkscape:window-y="0"
     inkscape:window-maximized="1"
     inkscape:current-layer="g1022" />
  <g
     inkscape:groupmode="layer"
     inkscape:label="Image"
     id="g24">
    <g
       id="g1022"
       transform="translate(0,200)">
      <path
         style="fill:#126889;stroke-width:0.32"
         d="m 50.575918,-23.35539 -15.504087,-0.16462 4.2e-5,-1.76 4.1e-5,-1.76 15.584042,-0.083 15.584045,-0.083 v 2.08305 2.08304 l -0.08,-0.0754 -0.08,-0.0754 z M 100.8,-25.20001 v -2 h 22.88 22.88 v 2 2 H 123.68 100.8 Z m -2.515339,-8.85015 -0.976435,-1.73015 7.825884,-14.12614 7.82589,-14.12615 v -0.27004 -0.27004 l -5.76248,-3.23366 -5.76249,-3.23367 h -0.29392 -0.29392 l -7.703591,13.9104 -7.703597,13.91041 v 0.32959 0.3296 h -2.24 -2.24 l 0.01642,-0.24 0.01642,-0.24 8.256189,-14.88 8.256192,-14.88 -0.126688,-0.34748 -0.126688,-0.3475 -2.680365,-1.4925 -2.680368,-1.49252 h -0.436899 -0.4369 l -9.417305,5.44 -9.417297,5.44 h -0.995571 -0.995571 l -0.774982,-0.82493 -0.774983,-0.82493 0.05416,-1.33507 0.05415,-1.33507 1.164208,-11.78373 1.164208,-11.78373 0.589808,-2.30613 0.589804,-2.30612 1.026861,-2.66274 1.026861,-2.66273 1.865565,-2.78905 1.865565,-2.78905 2.351814,-2.234 2.351815,-2.23399 2.449529,-1.52672 2.449527,-1.52673 2.649677,-1.11749 2.649673,-1.11749 2.921316,-0.75902 2.921312,-0.75902 1.958561,-0.22159 1.95855,-0.22158 2.87121,-5.79954 2.87121,-5.79954 2.61202,-4.48 2.61202,-4.48 2.72403,-4.16 2.72403,-4.16 3.11838,-4.16 3.11839,-4.16 3.50722,-4 3.50722,-4 3.7302,-3.5771 3.73019,-3.5771 3.44466,-2.77506 3.44466,-2.77505 4.76955,-3.17679 4.76954,-3.17679 4.51046,-2.20614 4.51045,-2.20614 2.51641,-0.82491 2.51641,-0.82492 h 0.60351 0.60351 l 2.44171,1.36 2.44171,1.36 0.46842,0.70969 0.46841,0.70968 0.59592,2.33032 0.59592,2.33031 0.49404,3.77639 0.49403,3.77639 v 6.1897 6.18971 l -0.33025,3.3139 -0.33026,3.31391 -0.80108,4.64 -0.80109,4.64 -1.12632,4.47836 -1.12631,4.47835 -1.71426,5.12165 -1.71425,5.12164 -2.08902,5.00568 -2.08902,5.00568 -2.55053,5.09357 -2.55054,5.09357 -1.82327,3.18075 -1.82328,3.18075 -2.52071,4.04576 -2.52072,4.04576 0.92153,2.03424 0.92153,2.03423 0.81136,2.72 0.81136,2.72 0.41453,1.92 0.41453,1.92 -0.015,4.48 -0.0151,4.48 -0.53136,2.15594 -0.53137,2.15594 -1.00137,2.59666 -1.00138,2.59665 -1.85944,2.76741 -1.85944,2.7674 -1.63782,1.82597 -1.63781,1.82596 -9.98692,7.75232 -9.98691,7.75231 -0.92507,0.46765 -0.92507,0.46763 -0.80224,-0.28592 -0.80224,-0.28592 -0.63759,-0.85645 -0.63758,-0.85644 -0.37321,-10.83396 -0.37321,-10.83396 -0.22953,-0.3714 -0.22954,-0.37139 -2.35175,-1.2982 -2.35176,-1.2982 -0.44061,0.004 -0.4406,0.004 -8.32,15.03632 -8.320004,15.03633 -0.209453,8e-5 -0.209453,9e-5 -0.976435,-1.73015 z M 135.68,-49.30087 l 6.56,-5.1307 1.88531,-1.82422 1.8853,-1.82422 1.26458,-1.58654 1.26459,-1.58654 1.27306,-2.532 1.27306,-2.532 0.6424,-2.44145 0.6424,-2.44147 0.0109,-3.68 0.011,-3.68 -0.53837,-2.52427 -0.53837,-2.52427 -0.54793,-1.47573 -0.54793,-1.47573 h -0.33474 -0.33474 l -3.96998,5.28 -3.96997,5.28 -3.18159,3.84 -3.18158,3.84 -3.6573,4.09553 -3.6573,4.09553 0.23147,7.74447 0.23147,7.74447 0.14103,0.24 0.14104,0.24 0.22111,-0.005 0.22112,-0.005 6.56,-5.13071 z m -8.2363,-18.61914 2.70592,-2.96 3.60393,-4.32 3.60392,-4.32 3.74772,-4.97532 3.74772,-4.97532 2.9955,-4.46468 2.99551,-4.46468 3.14386,-5.27999 3.14386,-5.28 2.68621,-5.44 2.68622,-5.44 1.4488,-3.40943 1.44879,-3.40943 1.46505,-4.04165 1.46505,-4.04166 1.26829,-4.33728 1.26829,-4.33727 0.95676,-4.69164 0.95676,-4.69164 0.54209,-4.16 0.54209,-4.16 0.0142,-7.2 0.0141,-7.2 -0.56018,-3.6134 -0.56018,-3.61339 -0.28006,-0.73663 -0.28007,-0.73663 -0.93499,-0.38729 -0.935,-0.38729 -2.53193,0.9995 -2.53192,0.99949 -3.68,1.92478 -3.68,1.92477 -3.52,2.3176 -3.52,2.3176 -3.241,2.58682 -3.24101,2.58681 -2.70637,2.54924 -2.70638,2.54924 -3.38008,3.53938 -3.38008,3.53939 -3.36402,4.19874 -3.36403,4.19875 -2.86482,4.22126 -2.86482,4.22126 -2.43395,4.04989 -2.43394,4.04988 -2.70626,5.23011 -2.70625,5.23012 -2.11088,4.73211 -2.11088,4.7321 -1.30546,3.26789 -1.30546,3.2679 -1.89952,5.28 -1.899518,5.27999 -1.907635,6.33544 -1.907635,6.33544 v 0.71937 0.71936 l 14.479998,8.0454 14.48,8.0454 0.36889,0.0198 0.36889,0.0198 2.70592,-2.96 z m 15.5963,-76.22724 0.8,-0.87504 1.22189,-0.62652 1.22188,-0.62653 1.65812,-0.18358 1.65811,-0.18358 -0.32,0.3073 -0.32,0.30731 -1.44,0.40998 -1.44,0.40999 -1.6,0.84213 -1.6,0.84212 -0.32,0.12573 -0.32,0.12573 z m -4.72731,-1.53275 0.47075,-0.72 1.56828,-1.20528 1.56828,-1.20528 2.03371,-0.63472 2.03371,-0.63472 h 1.56629 1.56629 v 0.29843 0.29844 l -0.56,0.15362 -0.56,0.15362 -1.2781,0.2171 -1.2781,0.21709 -1.82126,0.74005 -1.82126,0.74004 -1.73376,1.1508 -1.73376,1.15081 h -0.24591 -0.24591 z m -56.377591,67.9037 6.653584,-3.85629 0.31705,-0.38371 0.317053,-0.38371 0.534451,-2.06592 0.534454,-2.06593 1.576308,-5.13407 1.57631,-5.13408 1.634695,-4.63999 1.634691,-4.64 1.563155,-3.95513 1.563152,-3.95512 v -0.28488 -0.28487 H 99.05652 98.273039 l -2.656519,0.83318 -2.656518,0.83318 -2.72,1.40495 -2.72,1.40495 -1.85193,1.58994 -1.851929,1.58994 -1.590324,1.85193 -1.590326,1.85192 -1.434583,2.88 -1.434582,2.88 -0.633926,2.56 -0.633927,2.56 -0.803955,8 -0.803958,8 -0.169063,1.2 -0.169062,1.2 h 0.364537 0.364538 z m -19.375098,32.77111 -7.04,-8.80959 -0.661078,-0.72553 -0.661082,-0.72552 1.247069,-1.04697 1.247066,-1.04698 0.401193,-0.0401 0.401194,-0.0401 7.537133,9.33243 7.537133,9.33243 -1.219293,1.30757 -1.219293,1.30757 -0.265021,-0.0178 -0.265021,-0.0178 -7.04,-8.80959 z m 330.289579,4.67721 -0.91044,-0.27296 -0.43939,-0.57954 -0.43939,-0.57953 -0.0102,-31.90111 -0.0102,-31.90112 -0.34787,-0.215 -0.34791,-0.215 -0.26883,0.27612 -0.2688,0.27611 -6.90957,31.63274 -6.90953,31.63274 -0.32109,0.59993 -0.32106,0.59992 -0.61164,0.32734 -0.61162,0.32733 h -4.32598 -4.32599 l -0.77977,-0.35528 -0.77978,-0.35529 -0.35386,-0.77667 -0.35388,-0.77666 -6.70944,-30.78805 -6.70944,-30.78805 -0.25968,-0.8 -0.25968,-0.8 h -0.31229 -0.31229 l -0.16,31.94779 -0.16,31.94779 -0.89786,0.77221 -0.89782,0.77221 h -7.46672 -7.46669 l -0.75546,-0.61173 -0.75545,-0.61172 v -54.41938 -54.41938 l 0.72841,-0.72889 0.72839,-0.72889 9.5727,-0.0974 9.57268,-0.0974 1.29347,0.34829 1.29347,0.3483 0.39459,0.70913 0.39463,0.70913 7.69081,34.4 7.69085,34.39999 0.3193,-0.0623 0.31932,-0.0623 7.58154,-34.01767 7.58157,-34.01768 0.48493,-1.02103 0.48489,-1.02103 1.21424,-0.33719 1.21421,-0.33718 9.05027,-0.002 9.05027,-0.002 1.11178,0.46452 1.11174,0.46452 0.31799,0.83631 0.31795,0.83631 -0.005,53.49916 -0.005,53.49917 -0.40362,0.8 -0.40361,0.8 -1.11168,0.38194 -1.11165,0.38194 -6.4,-0.009 -6.4,-0.009 -0.91043,-0.27296 z m 45.23043,-0.47167 -2.08,-0.41951 -1.83194,-0.69039 -1.8319,-0.6904 -1.86775,-1.37493 -1.86771,-1.37494 -1.14016,-1.5651 -1.14019,-1.56509 -0.68573,-1.35815 -0.68576,-1.35816 -0.64157,-2.70145 -0.6416,-2.70144 0.0871,-40.4204 0.0872,-40.42039 0.88611,-2.50491 0.88608,-2.5049 1.0599,-1.65689 1.05991,-1.65689 1.60317,-1.44139 1.6032,-1.44141 1.8246,-0.89343 1.82464,-0.89343 2.46618,-0.68649 2.46621,-0.6865 h 12 12 l 2.44592,0.68132 2.44595,0.68131 2.01504,1.0172 2.01507,1.0172 1.80151,1.80461 1.8015,1.8046 1.01059,2.08 1.0106,2.08 0.54531,1.92 0.54534,1.92 0.12467,10.45691 0.12468,10.45691 -0.66308,0.66309 -0.6631,0.66309 h -7.77885 -7.77881 l -0.62119,-0.45344 -0.62115,-0.45344 -0.16,-7.14656 -0.16,-7.14656 -0.64,-1.08655 -0.64,-1.08655 -0.90234,-0.67345 -0.90233,-0.67345 -5.71139,-0.0999 -5.7114,-0.0999 -1.30195,0.66421 -1.30198,0.66422 -0.64861,1.27138 -0.64861,1.27138 0.0843,33.90093 0.0843,33.90091 0.65978,0.88362 0.65977,0.88362 0.88339,0.65977 0.8834,0.65977 h 5.81683 5.81683 l 1.10867,-0.65132 1.10867,-0.65132 0.65133,-1.10868 0.65133,-1.10868 0.16,-7.29235 0.16,-7.29235 0.48,-0.30294 0.48,-0.30294 0.96,-0.18413 0.96,-0.18413 6.92717,0.0994 6.92717,0.0994 0.67283,0.6096 0.67283,0.6096 -0.003,9.3104 -0.003,9.3104 -0.33408,2.05908 -0.33408,2.05909 -0.63997,1.94091 -0.63997,1.94092 -1.46841,2.17585 -1.46839,2.17585 -1.96182,1.39992 -1.96182,1.39992 -1.75332,0.69313 -1.75331,0.69313 -2.34816,0.4511 -2.34813,0.4511 -11.09187,-0.0301 -11.09184,-0.0301 -2.08,-0.4195 z"
         id="path1026"
         sodipodi:nodetypes="ccccccccccccccccccccccccccccccccccccccccccccccccccccccccccccccccccccccccccccccccccccccccccccccccccccccccccccccccccccccccccccccccccccccccccccccccccccccccccccccccccccccccccccccccccccccccccccccccccccccccccccccccccccccccccccccccccccccccccccccccccccccccccccccccccccccccccccccccccccccccccccccccccccccccccccccccccccccccccccccccccccccccccccccccccccccccccccccccccccccccccccccccccccccccccccccccccccccccccccccccccccccccccccccccccccccccccccccccccccccccccccccccccccccccccccccccccccccccccccccccccccccccccccccccccccccccccccccc" />
      <path
         style="fill:#514a4e;stroke-width:0.32"
         d="m 80.000002,-8.48141 -2.08,-0.47034 -2.020535,-0.99429 -2.020534,-0.99429 -1.979466,-1.85762 -1.979466,-1.85763 -1.096217,-1.82053 -1.096218,-1.82052 -0.743782,-2.56795 -0.743783,-2.56794 v -1.78195 -1.78195 l 0.67361,-2.49644 0.67361,-2.49643 1.08639,-1.80413 1.08639,-1.80413 v -0.12229 -0.12229 l 1.52,-1.56717 1.52,-1.56717 2.080001,-1.1166 2.08,-1.1166 2.213516,-0.71907 2.21352,-0.71907 2.746481,0.18535 2.746483,0.18536 1.783241,0.62178 1.783245,0.62179 1.241591,0.63697 1.241587,0.63697 2.129853,1.87979 2.129853,1.87979 1.085315,1.92 1.085315,1.92 0.695658,2.4 0.69566,2.4 0.0243,1.92643 0.0243,1.92644 -0.66266,2.39128 -0.66266,2.3913 -0.969168,1.81834 -0.969165,1.81835 -1.729056,1.77096 -1.729053,1.77095 -1.480858,0.86784 -1.480854,0.86784 -2.030381,0.73699 -2.030378,0.73699 -2.487884,0.16262 -2.487882,0.16261 -2.08,-0.47034 z m 9.049872,-4.41032 1.849872,-0.84179 1.865654,-1.77954 1.865658,-1.77953 1.056243,-2.29155 1.056243,-2.29155 0.151351,-2.35833 0.151347,-2.35832 -0.561155,-2.07307 -0.561155,-2.07307 -1.215248,-1.88023 -1.215252,-1.88023 -1.706713,-1.28575 -1.706717,-1.28575 -1.640074,-0.64438 -1.64007,-0.64437 -1.901795,-0.21517 -1.901793,-0.21516 -1.898134,0.39217 -1.898134,0.39217 -1.6,0.80799 -1.6,0.80798 -1.061124,0.80869 -1.061123,0.80869 -1.270358,1.77404 -1.270362,1.77404 -0.671562,2.21097 -0.671561,2.21098 0.172768,2.52065 0.172768,2.52065 0.954502,2.03973 0.954503,2.03972 1.217472,1.3476 1.217472,1.34759 1.403533,0.96566 1.403536,0.96566 1.654768,0.61334 1.654768,0.61334 3.2,-0.11104 3.2,-0.11104 z m -69.611178,0.0847 -1.201305,-0.30355 -1.640516,-0.83131 -1.640517,-0.83131 -1.497501,-1.4975 -1.497501,-1.49751 -0.849087,-1.75591 -0.849086,-1.75592 -0.2948849,-1.92 -0.2948845,-1.92 0.2539456,-1.82713 0.2539458,-1.82714 0.784571,-1.69286 0.78457,-1.69287 1.34568,-1.51285 1.345679,-1.51285 2.377692,-1.17512 2.377693,-1.17512 2.371741,-0.15221 2.371741,-0.15221 2.189665,0.67975 2.189664,0.67974 1.518198,1.12224 1.518198,1.12223 1.115543,1.5182 1.115539,1.5182 0.514634,1.44 0.51463,1.44 0.247235,0.48457 0.247232,0.48457 -0.06998,2.23543 -0.06998,2.23543 -0.496112,1.52599 -0.496109,1.52599 -1.030874,1.60648 -1.030872,1.60647 -1.340999,1.09885 -1.340999,1.09885 -1.835115,0.84014 -1.835115,0.84015 -2.462528,0.11682 -2.462529,0.11682 z m 6.657562,-3.82228 1.296258,-0.55835 1.204294,-1.05738 1.204293,-1.05739 0.826779,-1.6288 0.826779,-1.62881 0.152223,-2.11185 0.152222,-2.11185 -0.884948,-1.97192 -0.884947,-1.97193 -1.275435,-1.15228 -1.275436,-1.15228 -1.47917,-0.66276 -1.47917,-0.66276 -2.08,0.003 -2.08,0.003 -1.689418,0.73901 -1.689417,0.73901 -1.401134,1.5584 -1.401134,1.5584 -0.509448,1.49515 -0.509449,1.49514 2.53e-4,1.783 2.52e-4,1.78299 0.909701,1.92291 0.909702,1.92291 1.174365,1.03111 1.174366,1.0311 0.980129,0.50685 0.980128,0.50684 1.335552,0.2675 1.335552,0.2675 1.44,-0.16382 1.440001,-0.16382 z m 129.394602,3.56333 -1.78914,-0.59333 -1.44122,-0.99159 -1.44122,-0.99158 -1.01024,-1.15059 -1.01023,-1.15059 -0.74873,-1.50819 -0.74874,-1.50819 -0.40875,-1.50746 -0.40874,-1.50746 0.1292,-2.01254 0.1292,-2.01254 1.00152,-2.13747 1.00153,-2.13748 1.33503,-1.44834 1.33503,-1.44834 1.33638,-0.78317 1.33638,-0.78317 1.90004,-0.55235 1.90004,-0.55236 2.34988,0.17772 2.34988,0.17772 2.05025,0.95943 2.05025,0.95942 1.47997,1.47997 1.47996,1.47997 1.01581,2.14422 1.0158,2.14423 v 3.2 3.2 l -0.98618,2.08092 -0.98617,2.08091 -1.50409,1.50409 -1.50408,1.50408 -2.04993,1.00918 -2.04992,1.00917 -2.65982,0.12952 -2.65981,0.12951 z m 7.36447,-3.45635 1.09533,-0.45129 1.36288,-1.11678 1.36289,-1.11678 0.90178,-1.83643 0.90179,-1.83643 -0.009,-2.24 -0.009,-2.24 -0.66515,-1.45626 -0.66515,-1.45625 -1.02808,-1.17092 -1.02808,-1.17091 -1.78939,-0.87547 -1.7894,-0.87547 -2.10872,-0.008 -2.10872,-0.008 -1.6,0.72632 -1.6,0.72631 -1.23825,1.18421 -1.23824,1.18421 -0.75863,1.6 -0.75862,1.6 0.004,2.24 0.004,2.24 0.65048,1.44 0.65048,1.44 1.18249,1.22711 1.18249,1.22712 1.19503,0.61685 1.19503,0.61686 1.20497,0.2932 1.20497,0.29321 1.6,-0.17268 1.6,-0.17268 1.09533,-0.45128 z m 34.58467,-23.69791 -0.8,-0.15815 -0.56,-0.50042 -0.56,-0.50042 v -54.62078 -54.6208 l 0.67413,-0.6096 0.67412,-0.60959 H 215.79413 234.72 l 2.43255,0.57127 2.43254,0.57126 2.31262,1.1083 2.31262,1.10829 1.83733,1.84044 1.83733,1.84044 1.01214,2.08 1.01214,2.08 0.56537,2.08 0.56537,2.08 v 21.76 21.75999 l -0.56537,2.08 -0.56537,2.08 -0.98691,2.02484 -0.98691,2.02483 -1.81301,1.85285 -1.813,1.85284 -2.02879,1.02413 -2.02879,1.02413 -2.44593,0.65012 -2.44593,0.65012 -10.4,0.20807 -10.4,0.20807 -0.16,17.98875 -0.16,17.98875 -0.57092,0.57125 -0.57092,0.57125 -7.42908,0.049 -7.42908,0.049 z m 32.51764,-56.59957 0.88282,-0.65977 0.65977,-0.88369 0.65977,-0.8837 v -15.4165 -15.41653 l -0.56659,-1.03686 -0.56659,-1.03686 -1.2729,-0.64939 -1.27289,-0.64938 -6.96051,0.0862 -6.96052,0.0862 -0.0831,18.24 -0.0831,18.24 0.16148,0.42202 0.16148,0.42201 7.17901,-0.10201 7.179,-0.10202 z m 53.12552,55.83655 -0.84315,-0.66323 v -15.29245 -15.29244 l -11.36,-25.77906 -11.36,-25.77906 v -0.45564 -0.45567 l 0.67359,-0.6096 0.6736,-0.60959 h 7.15751 7.15752 l 0.7012,0.7012 0.70121,0.70121 6.78405,15.61879 6.78405,15.61879 h 0.40389 0.40389 l 6.76471,-15.59607 6.76471,-15.59608 0.72327,-0.72392 0.72326,-0.72392 6.28744,-0.10517 6.28744,-0.10517 1.05404,0.19774 1.05404,0.19774 0.4903,0.49028 0.49028,0.49029 v 0.57643 0.57644 l -11.36,25.66793 -11.36,25.66793 v 15.30955 15.30955 l -0.84316,0.66323 -0.84315,0.66322 h -6.63369 -6.63369 z m -237.568631,-12.80896 -1.685469,-0.28413 -1.872816,-0.94539 -1.872816,-0.94539 -1.459834,-1.45984 -1.459833,-1.45983 -0.829959,-1.69638 -0.829961,-1.69638 -0.322243,-2.00095 -0.322247,-2.00096 0.356813,-1.97928 0.35681,-1.97929 0.975881,-1.83584 0.975879,-1.83584 1.567852,-1.46654 1.567853,-1.46654 1.727136,-0.79071 1.727133,-0.79071 1.862647,-0.30481 1.862646,-0.30481 1.92,0.34643 1.92,0.34644 1.695184,0.80189 1.695184,0.80189 1.553331,1.55333 1.553332,1.55333 0.828624,1.69625 0.82862,1.69624 0.347645,1.88633 0.347645,1.88633 -0.361507,2.07593 -0.361511,2.07593 -0.940572,1.86327 -0.940573,1.86326 -1.362701,1.32163 -1.362701,1.32164 -1.44,0.72915 -1.44,0.72916 -1.12,0.33778 -1.12,0.33778 -1.44,0.15188 -1.44,0.15188 z m 6.259078,-3.99467 1.659268,-0.82684 1.204077,-1.36791 1.20408,-1.3679 0.561068,-1.56525 0.561066,-1.56525 -0.0047,-1.92 -0.0047,-1.92 -0.748093,-1.60649 -0.748096,-1.60648 -1.685232,-1.51517 -1.685232,-1.51517 -1.779555,-0.51733 -1.779555,-0.51733 -1.679968,0.17338 -1.679972,0.17339 -1.412627,0.62487 -1.412627,0.62488 -1.169229,1.16922 -1.169226,1.16923 -0.690115,1.3515 -0.690115,1.3515 -0.151811,2.11473 -0.151811,2.11473 0.36839,1.11623 0.368394,1.11624 0.934259,1.47317 0.934262,1.47318 1.281962,0.84836 1.281961,0.84837 1.215146,0.43345 1.215143,0.43345 2.097171,0.014 2.097168,0.014 1.659267,-0.82685 z m 90.692253,-65.27126 -1.69414,-0.45601 -1.71813,-0.84128 -1.71813,-0.84129 -1.54773,-1.27744 -1.54773,-1.27744 -1.35517,-1.80421 -1.35519,-1.80421 -0.84723,-2.08 -0.84723,-2.08 -0.15659,-3.04143 -0.15659,-3.04142 0.38253,-1.8426 0.38252,-1.8426 1.11688,-2.23251 1.11688,-2.23251 1.54538,-1.68347 1.54538,-1.68346 1.85572,-1.11634 1.85571,-1.11633 2.0985,-0.7154 2.0985,-0.71541 2.88,-0.004 2.88,-0.004 1.6,0.42661 1.6,0.42661 1.91914,0.92959 1.91913,0.92959 2.27045,2.24 2.27044,2.24 1.01248,2.08 1.01248,2.08 0.47239,2.24 0.47238,2.24 v 1.28 1.28 l -0.4602,2.1718 -0.4602,2.17179 -1.05424,2.14821 -1.05425,2.14817 -2.08,2.09143 -2.08,2.09142 -1.94978,1.02058 -1.94978,1.02057 -2.05022,0.48327 -2.05022,0.48327 -2.24,-0.0163 -2.24,-0.0163 -1.69414,-0.456 z m 9.87771,-4.54556 2.10358,-1.01515 1.67196,-1.76786 1.67197,-1.76786 0.98945,-2.11442 0.98946,-2.11443 0.15388,-2.15067 0.15388,-2.15069 -0.36055,-1.68119 -0.36055,-1.68119 -0.85932,-1.75496 -0.85932,-1.75497 -1.60254,-1.62801 -1.60253,-1.62801 -2.00876,-0.94001 -2.00877,-0.94002 -1.8477,-0.25435 -1.84771,-0.25436 -2.02435,0.28306 -2.02436,0.28306 -1.73489,0.82074 -1.7349,0.82074 -1.75303,1.60217 -1.75303,1.60217 -0.9883,2.00753 -0.98831,2.00752 -0.36032,2.10359 -0.36033,2.10358 0.36425,1.95869 0.36426,1.95869 0.79427,1.73492 0.79428,1.73493 1.53137,1.63716 1.53137,1.63716 1.38254,0.81022 1.38255,0.81023 1.34847,0.43876 1.34846,0.43877 3.2,-0.0902 3.2,-0.0902 z"
         id="path1024"
         sodipodi:nodetypes="ccccccccccccccccccccccccccccccccccccccccccccccccccccccccccccccccccccccccccccccccccccccccccccccccccccccccccccccccccccccccccccccccccccccccccccccccccccccccccccccccccccccccccccccccccccccccccccccccccccccccccccccccccccccccccccccccccccccccccccccccccccccccccccccccccccccccccccccccccccccccccccccccccccccccccccccccccccccccccccccccccccccccccccccccccccccccccccccccccccccccccccccccccccccccccccccccccccccccccccccccccccccccccccccccccccccccccccccccccccccccccccccccccccccccccccccccccccccccccccccccccccccccccccccccccccccccccccccccccc" />
    </g>
    <path
       style="fill:#ffffff;stroke-width:0.544107"
       d=""
       id="path1048" />
    <path
       style="fill:#ffffff;stroke-width:0.544107"
       d=""
       id="path1050" />
  </g>
</svg>
